<?xml version="1.0" encoding="utf-8"?>
<!-- Generator: Adobe Illustrator 27.0.0, SVG Export Plug-In . SVG Version: 6.00 Build 0)  -->
<svg version="1.1" id="Layer_1" xmlns="http://www.w3.org/2000/svg" xmlns:xlink="http://www.w3.org/1999/xlink" x="0px" y="0px"
	 viewBox="0 0 411 250" style="enable-background:new 0 0 411 250;" xml:space="preserve">
<style type="text/css">
	.st0{fill:#9A7748;}
	.st1{enable-background:new    ;}
	.st2{fill:#FAF8F4;}
</style>
<g id="Group_94" transform="translate(-1250 -3802)">
	<rect id="Rectangle_1481" x="1250" y="3802" class="st0" width="411" height="250"/>
	<g>
		<g class="st1">
			<path class="st2" d="M1334.6,3845.6c6.3,0,10.2,1.5,10.2,6.1c0,3.4-2.1,5.4-5.8,6v0.1c4.4,0.6,7.1,2.7,7.1,6.4
				c0,5.8-4.9,7.3-11.7,7.3h-9.6v-1.1h2.8v-23.8h-2.8v-1.1H1334.6z M1333.2,3857.5h1c3.9,0,5-1.7,5-5.7c0-3.9-1.2-5.1-4.8-5.1h-1.2
				V3857.5z M1333.2,3870.4h1.7c4,0,5.3-1.8,5.3-6.1c0-4-1.3-5.7-5.6-5.7h-1.4V3870.4z"/>
			<path class="st2" d="M1355.6,3861.4v9.1h3.3v1H1348v-1h2.4v-15.7h-2.4v-1h7.6v3.4c0.8-2.6,2.6-3.8,4.7-3.8c2.3,0,3.8,1.4,3.8,3.8
				c0,2.1-1.1,3.1-2.7,3.1c-1.5,0-2.6-0.8-2.6-2.7c0-0.3,0-0.7,0.1-1.1h1.1c0.1-0.3,0.2-0.6,0.2-0.8c0-0.7-0.5-0.9-1-0.9
				C1357.3,3855,1355.6,3858.1,1355.6,3861.4z"/>
			<path class="st2" d="M1374.3,3853.5c5.7,0,8.8,2.9,8.8,9c0,5.9-3,9.4-9,9.4c-5.8,0-9-3.3-9-9.1
				C1365.2,3856.8,1368.6,3853.5,1374.3,3853.5z M1374.2,3854.4c-3,0-3.5,3.1-3.5,8.2c0,5.1,0.5,8.4,3.5,8.4c2.8,0,3.4-2.7,3.4-8.4
				C1377.6,3857.6,1377.1,3854.4,1374.2,3854.4z"/>
			<path class="st2" d="M1392.3,3853.9v3.3c0.8-1.8,2.4-3.7,6-3.7c3.4,0,5.6,1.7,5.6,6.2v10.8h2.4v1h-9.8v-1h2.1v-11.4
				c0-2.9-0.6-3.9-2.1-3.9c-2.2,0-4.3,2.4-4.3,5.7v9.6h2.2v1h-9.8v-1h2.4v-15.7h-2.4v-1H1392.3z"/>
			<path class="st2" d="M1423.2,3854.8l-9.6,15.7h2.8c3.7,0,5-1.7,6.2-5.9h0.7l-0.5,6.8h-15.2v-0.8l9.8-15.8h-2.6
				c-3.9,0-4.9,0.6-6.3,5.4h-0.7l0.4-6.3h14.9V3854.8z"/>
			<path class="st2" d="M1434.6,3853.5c5.1,0,7.5,2.9,7.3,8.4h-11v1c0,4.8,1,7.6,4.8,7.6c2.8,0,4.5-1.7,5.2-4.4l1,0.1
				c-0.7,3.1-2.6,5.6-7.6,5.6c-6.1,0-8.9-3.7-8.9-9.1C1425.4,3856.4,1429.4,3853.5,1434.6,3853.5z M1436.8,3861
				c0.1-4.7-0.4-6.5-2.6-6.5c-2.1,0-3.1,1.7-3.2,6.5H1436.8z"/>
			<path class="st2" d="M1461.4,3845.6c6.5,0,10.9,1.6,10.9,7.3c0,6.4-5.1,8-11.9,8h-0.9v9.5h4.6v1.1h-13v-1.1h2.8v-23.8h-2.8v-1.1
				H1461.4z M1459.6,3859.8h1.3c4,0,5.4-2,5.4-6.8c0-4.9-1.5-6.3-5.2-6.3h-1.6V3859.8z"/>
			<path class="st2" d="M1483.1,3862.7v-2.7c0-4-0.6-5.5-2.9-5.5c-1.3,0-2.3,0.4-2.3,1.4c0,0.2,0,0.5,0.1,0.7h1
				c0.2,0.5,0.3,1,0.3,1.6c0,1.6-1.1,2.5-2.7,2.5c-1.8,0-2.6-1.1-2.6-2.7c0-2.9,2.8-4.4,7.1-4.4c5.1,0,7.2,1.6,7.2,7v7.3
				c0,1.6,0.4,2.1,1.1,2.1c0.7,0,1.2-0.6,1.5-3.6l0.9,0.1c-0.2,4.1-1.4,5.5-4.3,5.5c-2.5,0-3.8-0.9-4.2-2.6
				c-0.8,1.7-2.4,2.6-4.7,2.6c-2.7,0-5.3-0.9-5.3-4.4c0-3.8,3.2-4.8,8.2-4.8H1483.1z M1483.1,3866.7v-3.1h-0.9
				c-2.7,0-3.6,1.3-3.6,3.8c0,2.2,0.6,2.9,1.8,2.9C1481.7,3870.3,1483.1,3869,1483.1,3866.7z"/>
			<path class="st2" d="M1498.3,3862.7c0,5.6,1.2,7.8,4.4,7.8c3.4,0,4.6-2.7,5-4.8l1,0.1c-0.4,2.3-1.6,6-7.5,6
				c-5.4,0-8.5-3.2-8.5-8.9c0-6.3,3.7-9.5,9.4-9.5c4.2,0,6.5,1.9,6.5,4.7c0,2.1-1.1,3.1-2.7,3.1c-1.6,0-2.7-0.9-2.7-2.7
				c0-0.3,0-0.8,0.2-1.3h1.1c0.1-0.4,0.2-0.7,0.2-1.1c0-1-0.7-1.8-2.3-1.8C1499.6,3854.4,1498.3,3856.6,1498.3,3862.7z"/>
			<path class="st2" d="M1521.8,3870.5h2.1l-4.8-8.2l-1.3,0.3v8h2.1v1h-9.7v-1h2.4v-25.8h-2.5v-1h7.7v17.8l1-0.3l7.3-6.4h-3.1v-1
				h7.4v1h-2.6l-4.9,4.4l6.8,11.3h1.6v1h-9.5V3870.5z"/>
			<path class="st2" d="M1542.2,3862.7v-2.7c0-4-0.6-5.5-2.9-5.5c-1.3,0-2.3,0.4-2.3,1.4c0,0.2,0,0.5,0.1,0.7h1
				c0.2,0.5,0.3,1,0.3,1.6c0,1.6-1.1,2.5-2.7,2.5c-1.8,0-2.6-1.1-2.6-2.7c0-2.9,2.8-4.4,7.1-4.4c5.1,0,7.2,1.6,7.2,7v7.3
				c0,1.6,0.4,2.1,1.1,2.1c0.7,0,1.2-0.6,1.5-3.6l0.9,0.1c-0.2,4.1-1.4,5.5-4.3,5.5c-2.5,0-3.8-0.9-4.2-2.6
				c-0.8,1.7-2.4,2.6-4.7,2.6c-2.7,0-5.3-0.9-5.3-4.4c0-3.8,3.2-4.8,8.2-4.8H1542.2z M1542.2,3866.7v-3.1h-0.9
				c-2.7,0-3.6,1.3-3.6,3.8c0,2.2,0.6,2.9,1.8,2.9C1540.9,3870.3,1542.2,3869,1542.2,3866.7z"/>
			<path class="st2" d="M1559.9,3865.9c-1,0-2-0.1-2.8-0.3c-1.3,0.9-2,1.5-2,1.9s0.4,0.6,1.8,0.6h4.4c4.3,0,7.9,0.9,7.9,5.7
				c0,4-2.7,7-10.2,7c-5.8,0-8.4-1.6-8.4-4.1c0-1.9,1.5-2.6,2.8-3l1.6,0.9c-0.3,0.7-0.4,1.4-0.4,2c0,1.7,1.1,3.3,5.1,3.3
				c4.3,0,6.5-1.7,6.5-4.2c0-2.1-1.2-2.8-5-2.8h-4.2c-3.5,0-4.7-1.4-4.7-3c0-1.7,1.2-2.8,3.6-4.5c-2.6-0.9-3.7-2.7-3.7-5.5
				c0-3.4,2.3-6.3,7.5-6.3c1.3,0,2.6,0.3,3.7,0.9c-0.2-2.8,1.1-5.5,4-5.5c1.6,0,2.8,1,2.8,2.6c0,1.1-0.8,2.1-2,2.1
				c-1,0-1.7-0.6-1.9-1.1l0.9-1c-0.1-0.6-0.4-0.9-1-0.9c-0.9,0-1.7,1-1.7,3.5c0,0.3,0,0.6,0,1c1.4,1,2.3,2.5,2.3,4.6
				C1567,3863.5,1564.2,3865.9,1559.9,3865.9z M1559.8,3864.9c1.5,0,2.4-0.9,2.4-5.1c0-4.3-0.8-5.3-2.3-5.3c-1.6,0-2.5,0.9-2.5,5.4
				C1557.3,3863.9,1558.2,3864.9,1559.8,3864.9z"/>
			<path class="st2" d="M1578.8,3853.5c5.1,0,7.5,2.9,7.3,8.4h-11v1c0,4.8,1,7.6,4.8,7.6c2.8,0,4.5-1.7,5.2-4.4l1,0.1
				c-0.7,3.1-2.6,5.6-7.6,5.6c-6.1,0-8.9-3.7-8.9-9.1C1569.6,3856.4,1573.6,3853.5,1578.8,3853.5z M1581,3861
				c0.1-4.7-0.4-6.5-2.6-6.5c-2.1,0-3.1,1.7-3.2,6.5H1581z"/>
		</g>
		<g class="st1">
			<path class="st2" d="M1394.1,3923.5c2.3-1.8,5.2-2.8,8.7-2.8s6.4,0.9,8.7,2.8c2.3,1.8,3.4,4.1,3.4,6.8s-1,5-3.1,6.9
				c2.9,2.2,4.4,5.2,4.4,8.8c0,3.1-1.2,5.7-3.7,7.8c-2.5,2.1-5.7,3.2-9.7,3.2s-7.2-1.1-9.6-3.2c-2.5-2.1-3.7-4.7-3.7-7.8
				c0-3.6,1.4-6.6,4.3-8.8c-2.1-2-3.1-4.3-3.1-7C1390.6,3927.6,1391.7,3925.3,1394.1,3923.5z M1398.9,3949.2
				c1.2,0.8,2.4,1.2,3.8,1.2c1.4,0,2.6-0.4,3.8-1.2c1.2-0.8,1.8-1.9,1.8-3.4s-0.6-2.6-1.7-3.5c-1.1-0.8-2.4-1.2-3.9-1.2
				c-1.4,0-2.7,0.4-3.8,1.2c-1.1,0.8-1.7,2-1.7,3.5S1397.8,3948.4,1398.9,3949.2z M1399.4,3934c0.9,0.8,2.1,1.2,3.3,1.2
				c1.3,0,2.4-0.4,3.3-1.2s1.4-1.8,1.4-3c0-1.2-0.5-2.2-1.4-3c-0.9-0.8-2-1.2-3.4-1.2c-1.3,0-2.4,0.4-3.3,1.2
				c-0.9,0.8-1.4,1.8-1.4,3C1398,3932.2,1398.5,3933.2,1399.4,3934z"/>
			<path class="st2" d="M1435.3,3944.8v-6.6h17.8v6.6H1435.3z"/>
			<path class="st2" d="M1471.2,3921.6h14.2v35h-7.5v-28.3h-6.7V3921.6z"/>
			<path class="st2" d="M1507.1,3956.9c-4.8,0-8.5-1.6-10.8-4.9c-2.4-3.3-3.6-7.7-3.6-13.1s1.2-9.9,3.6-13.2c2.4-3.3,6-4.9,10.8-4.9
				s8.5,1.6,10.9,4.9c2.4,3.3,3.6,7.7,3.6,13.2s-1.2,9.9-3.6,13.1C1515.5,3955.3,1511.9,3956.9,1507.1,3956.9z M1501.9,3930.4
				c-1.1,2.1-1.7,4.9-1.7,8.4s0.5,6.3,1.7,8.5c1.1,2.1,2.8,3.2,5.1,3.2s4-1.1,5.2-3.2c1.1-2.1,1.6-5,1.6-8.5s-0.5-6.3-1.6-8.4
				c-1.1-2.1-2.8-3.2-5.2-3.2S1503,3928.3,1501.9,3930.4z"/>
		</g>
		<g class="st1">
			<path class="st2" d="M1352.3,3987.8v8.7h-4.5v-22.3h4.5v7.9c1.4-1.4,2.9-2.1,4.6-2.1c1.7,0,3.1,0.6,4.3,1.8
				c1.2,1.2,1.7,2.8,1.7,4.8v9.8h-4.5v-8.8c0-2.5-0.9-3.7-2.7-3.7c-0.9,0-1.7,0.3-2.4,1C1352.7,3985.6,1352.3,3986.5,1352.3,3987.8z
				"/>
			<path class="st2" d="M1383.2,3988.4c0,2.3-0.8,4.3-2.4,5.9c-1.6,1.6-3.7,2.4-6.1,2.4s-4.5-0.8-6.1-2.4c-1.6-1.6-2.4-3.6-2.4-5.9
				s0.8-4.3,2.4-5.9c1.6-1.6,3.7-2.4,6.1-2.4s4.5,0.8,6.1,2.4C1382.3,3984.1,1383.2,3986.1,1383.2,3988.4z M1370.6,3988.4
				c0,1.3,0.4,2.4,1.1,3.2s1.7,1.2,2.9,1.2s2.1-0.4,2.9-1.2s1.1-1.9,1.1-3.2c0-1.3-0.4-2.4-1.1-3.2c-0.8-0.8-1.7-1.3-2.9-1.3
				s-2.1,0.4-2.9,1.3C1371,3986,1370.6,3987.1,1370.6,3988.4z"/>
			<path class="st2" d="M1396.9,3989.1v-8.7h4.5v16.1h-4.5v-2.1c-1.1,1.6-2.6,2.4-4.3,2.4c-1.8,0-3.3-0.6-4.5-1.7
				c-1.2-1.1-1.8-2.8-1.8-4.9v-9.8h4.5v8.8c0,2.5,0.9,3.7,2.7,3.7c0.9,0,1.7-0.3,2.3-1C1396.6,3991.2,1396.9,3990.3,1396.9,3989.1z"
				/>
			<path class="st2" d="M1414.2,3984.3c-1.3,0-2.3,0.5-3,1.4s-1,2.2-1,3.8v7h-4.5v-16.1h4.5v2.1c0.6-0.7,1.3-1.2,2.2-1.7
				c0.9-0.5,1.8-0.7,2.7-0.7l0,4.2H1414.2z"/>
			<path class="st2" d="M1430,3991.5c0,1.6-0.6,2.9-1.8,3.8s-2.7,1.4-4.5,1.4c-1.2,0-2.5-0.2-3.8-0.6c-1.3-0.4-2.5-1.1-3.5-1.9
				l2-2.8c1.7,1.3,3.5,2,5.4,2c0.6,0,1-0.1,1.4-0.3c0.3-0.2,0.5-0.5,0.5-0.9c0-0.4-0.2-0.7-0.7-1c-0.5-0.3-1.2-0.6-2-0.9
				c-0.9-0.3-1.6-0.5-2-0.7c-0.5-0.2-1-0.5-1.6-0.9c-1.2-0.8-1.8-1.9-1.8-3.4c0-1.5,0.6-2.7,1.8-3.6c1.2-0.9,2.8-1.4,4.7-1.4
				c1.9,0,3.8,0.6,5.7,1.9l-1.7,3c-1.4-1-2.8-1.4-4.2-1.4c-1.4,0-2.1,0.4-2.1,1.1c0,0.4,0.2,0.8,0.7,1c0.4,0.2,1.2,0.5,2.2,0.8
				c1,0.3,1.7,0.6,2.2,0.7c0.4,0.2,0.9,0.4,1.5,0.8C1429.5,3988.8,1430,3989.9,1430,3991.5z"/>
			<path class="st2" d="M1455.1,3996.5h-4.2v-2c-1.2,1.5-2.6,2.2-4.3,2.2s-3.1-0.5-4.3-1.5s-1.7-2.3-1.7-4s0.6-2.9,1.8-3.7
				c1.2-0.8,2.8-1.2,4.9-1.2h3.4v-0.1c0-1.7-0.9-2.6-2.7-2.6c-0.8,0-1.6,0.2-2.5,0.5c-0.9,0.3-1.6,0.7-2.2,1.2l-2-2.9
				c2.1-1.5,4.5-2.3,7.3-2.3c2,0,3.6,0.5,4.8,1.5c1.2,1,1.9,2.5,1.9,4.7V3996.5z M1450.6,3990.4v-0.8h-2.8c-1.8,0-2.7,0.6-2.7,1.7
				c0,0.6,0.2,1,0.6,1.3c0.4,0.3,1,0.5,1.8,0.5s1.5-0.2,2.1-0.7C1450.3,3991.8,1450.6,3991.2,1450.6,3990.4z"/>
			<path class="st2" d="M1482,3987.8v8.7h-4.5v-8.8c0-1.3-0.2-2.2-0.6-2.8c-0.4-0.6-1-0.9-1.9-0.9s-1.6,0.3-2.3,1
				c-0.7,0.7-1,1.6-1,2.9v8.7h-4.5v-16.1h4.5v1.8c1.2-1.4,2.7-2.1,4.3-2.1c1,0,1.9,0.3,2.8,0.9c0.8,0.6,1.5,1.3,1.9,2.2
				c0.6-1,1.5-1.7,2.5-2.3c1.1-0.5,2.1-0.8,3.2-0.8c1.9,0,3.4,0.6,4.6,1.7s1.7,2.8,1.7,4.9v9.8h-4.5v-8.8c0-2.5-0.9-3.7-2.7-3.7
				c-0.9,0-1.7,0.3-2.3,1C1482.3,3985.6,1482,3986.5,1482,3987.8z"/>
			<path class="st2" d="M1512.8,3988.4c0,2.3-0.8,4.3-2.4,5.9c-1.6,1.6-3.7,2.4-6.1,2.4s-4.5-0.8-6.1-2.4c-1.6-1.6-2.4-3.6-2.4-5.9
				s0.8-4.3,2.4-5.9c1.6-1.6,3.7-2.4,6.1-2.4s4.5,0.8,6.1,2.4C1512,3984.1,1512.8,3986.1,1512.8,3988.4z M1500.2,3988.4
				c0,1.3,0.4,2.4,1.1,3.2s1.7,1.2,2.9,1.2s2.1-0.4,2.9-1.2s1.1-1.9,1.1-3.2c0-1.3-0.4-2.4-1.1-3.2c-0.8-0.8-1.7-1.3-2.9-1.3
				s-2.1,0.4-2.9,1.3C1500.6,3986,1500.2,3987.1,1500.2,3988.4z"/>
			<path class="st2" d="M1520.6,3987.5v9h-4.5v-16.1h4.5v1.8c1.4-1.4,2.9-2.1,4.6-2.1s3.1,0.6,4.3,1.8c1.1,1.2,1.7,2.8,1.7,4.8v9.8
				h-4.5v-9.1c0-2.5-0.9-3.7-2.7-3.7c-0.9,0-1.7,0.3-2.4,1C1520.9,3985.3,1520.6,3986.2,1520.6,3987.5z"/>
			<path class="st2" d="M1540.4,3983.6v7.2c0,0.6,0.2,1.1,0.5,1.5s0.7,0.5,1.1,0.5c0.8,0,1.5-0.4,2.1-1.1l1.7,3.2
				c-1.4,1.3-2.9,1.9-4.4,1.9s-2.9-0.5-3.9-1.5c-1.1-1-1.6-2.4-1.6-4.2v-7.4h-1.9v-3.2h1.9v-4.8h4.5v4.8h3.9v3.2H1540.4z"/>
			<path class="st2" d="M1552.7,3987.8v8.7h-4.5v-22.3h4.5v7.9c1.4-1.4,2.9-2.1,4.6-2.1s3.1,0.6,4.3,1.8c1.2,1.2,1.7,2.8,1.7,4.8
				v9.8h-4.5v-8.8c0-2.5-0.9-3.7-2.7-3.7c-0.9,0-1.7,0.3-2.4,1C1553.1,3985.6,1552.7,3986.5,1552.7,3987.8z"/>
		</g>
	</g>
</g>
</svg>
