<?xml version="1.0" encoding="utf-8"?>
<!-- Generator: Adobe Illustrator 27.0.0, SVG Export Plug-In . SVG Version: 6.00 Build 0)  -->
<svg version="1.1" id="Layer_1" xmlns="http://www.w3.org/2000/svg" xmlns:xlink="http://www.w3.org/1999/xlink" x="0px" y="0px"
	 viewBox="0 0 411 250" style="enable-background:new 0 0 411 250;" xml:space="preserve">
<style type="text/css">
	.st0{fill:#9A7748;}
	.st1{enable-background:new    ;}
	.st2{fill:#FAF8F4;}
</style>
<g id="Group_94" transform="translate(-1250 -3802)">
	<rect id="Rectangle_1481" x="1250" y="3802" class="st0" width="411" height="250"/>
	<g>
		<g class="st1">
			<path class="st2" d="M1356.9,3868.2v-6.2h-2.9v-1.1h10.2v1.1h-1.9v9.4h-0.7c-0.3-0.6-0.6-0.9-1.5-0.9c-1.3,0-4,1.3-7.3,1.3
				c-7.5,0-12.3-4-12.3-13.1c0-9,5.3-13.6,12.5-13.6c3.3,0,5.4,1.1,6.7,1.1c0.6,0,0.7-0.3,0.9-0.7h0.7l0.3,7.8h-0.9
				c-1.4-4.3-3.9-7.1-7.5-7.1c-4.3,0-6.7,3.3-6.7,12.4c0,8,2.3,12,6.7,12C1355.4,3870.7,1356.5,3869.8,1356.9,3868.2z"/>
			<path class="st2" d="M1375.5,3853.5c5.7,0,8.8,2.9,8.8,9c0,5.9-3,9.4-9,9.4c-5.8,0-9-3.3-9-9.1
				C1366.4,3856.8,1369.9,3853.5,1375.5,3853.5z M1375.5,3854.4c-3,0-3.5,3.1-3.5,8.2c0,5.1,0.5,8.4,3.5,8.4c2.8,0,3.4-2.7,3.4-8.4
				C1378.8,3857.6,1378.3,3854.4,1375.5,3854.4z"/>
			<path class="st2" d="M1393.5,3843.8v26.8h2.4v1h-10v-1h2.4v-25.8h-2.5v-1H1393.5z"/>
			<path class="st2" d="M1409.8,3868.8c-1,1.9-2.6,3-5.5,3c-4.3,0-6.9-3-6.9-9.1c0-6.2,2.8-9.3,7.5-9.3c2.4,0,3.9,0.9,4.7,2.2v-11
				h-2.8v-1h8.1v26.8h2.4v1h-7.3L1409.8,3868.8z M1409.8,3865.7v-6.7c0-2-1.3-4.3-3.5-4.3c-2.5,0-3.4,2.4-3.4,8
				c0,5.5,0.6,7.5,3.1,7.5C1407.8,3870.2,1409.8,3868.7,1409.8,3865.7z"/>
			<path class="st2" d="M1436.4,3845.6c6.5,0,10.9,1.6,10.9,7.3c0,6.4-5.1,8-11.9,8h-0.9v9.5h4.6v1.1h-13v-1.1h2.8v-23.8h-2.8v-1.1
				H1436.4z M1434.6,3859.8h1.3c4,0,5.4-2,5.4-6.8c0-4.9-1.5-6.3-5.2-6.3h-1.6V3859.8z"/>
			<path class="st2" d="M1458.1,3862.7v-2.7c0-4-0.6-5.5-2.9-5.5c-1.3,0-2.3,0.4-2.3,1.4c0,0.2,0,0.5,0.1,0.7h1
				c0.2,0.5,0.3,1,0.3,1.6c0,1.6-1.1,2.5-2.7,2.5c-1.8,0-2.6-1.1-2.6-2.7c0-2.9,2.8-4.4,7.1-4.4c5.1,0,7.2,1.6,7.2,7v7.3
				c0,1.6,0.4,2.1,1.1,2.1c0.7,0,1.2-0.6,1.5-3.6l0.9,0.1c-0.2,4.1-1.4,5.5-4.3,5.5c-2.5,0-3.8-0.9-4.2-2.6
				c-0.8,1.7-2.4,2.6-4.7,2.6c-2.7,0-5.3-0.9-5.3-4.4c0-3.8,3.2-4.8,8.2-4.8H1458.1z M1458.1,3866.7v-3.1h-0.9
				c-2.7,0-3.6,1.3-3.6,3.8c0,2.2,0.6,2.9,1.8,2.9C1456.7,3870.3,1458.1,3869,1458.1,3866.7z"/>
			<path class="st2" d="M1473.3,3862.7c0,5.6,1.2,7.8,4.4,7.8c3.4,0,4.6-2.7,5-4.8l1,0.1c-0.4,2.3-1.6,6-7.5,6
				c-5.4,0-8.5-3.2-8.5-8.9c0-6.3,3.7-9.5,9.4-9.5c4.2,0,6.5,1.9,6.5,4.7c0,2.1-1.1,3.1-2.7,3.1c-1.6,0-2.7-0.9-2.7-2.7
				c0-0.3,0-0.8,0.2-1.3h1.1c0.1-0.4,0.2-0.7,0.2-1.1c0-1-0.7-1.8-2.3-1.8C1474.6,3854.4,1473.3,3856.6,1473.3,3862.7z"/>
			<path class="st2" d="M1496.7,3870.5h2.1l-4.8-8.2l-1.3,0.3v8h2.1v1h-9.7v-1h2.4v-25.8h-2.5v-1h7.7v17.8l1-0.3l7.3-6.4h-3.1v-1
				h7.4v1h-2.6l-4.9,4.4l6.8,11.3h1.6v1h-9.5V3870.5z"/>
			<path class="st2" d="M1517.2,3862.7v-2.7c0-4-0.6-5.5-2.9-5.5c-1.3,0-2.3,0.4-2.3,1.4c0,0.2,0,0.5,0.1,0.7h1
				c0.2,0.5,0.3,1,0.3,1.6c0,1.6-1.1,2.5-2.7,2.5c-1.8,0-2.6-1.1-2.6-2.7c0-2.9,2.8-4.4,7.1-4.4c5.1,0,7.2,1.6,7.2,7v7.3
				c0,1.6,0.4,2.1,1.1,2.1c0.7,0,1.2-0.6,1.5-3.6l0.9,0.1c-0.2,4.1-1.4,5.5-4.3,5.5c-2.5,0-3.8-0.9-4.2-2.6
				c-0.8,1.7-2.4,2.6-4.7,2.6c-2.7,0-5.3-0.9-5.3-4.4c0-3.8,3.2-4.8,8.2-4.8H1517.2z M1517.2,3866.7v-3.1h-0.9
				c-2.7,0-3.6,1.3-3.6,3.8c0,2.2,0.6,2.9,1.8,2.9C1515.8,3870.3,1517.2,3869,1517.2,3866.7z"/>
			<path class="st2" d="M1534.9,3865.9c-1,0-2-0.1-2.8-0.3c-1.3,0.9-2,1.5-2,1.9s0.4,0.6,1.8,0.6h4.4c4.3,0,7.9,0.9,7.9,5.7
				c0,4-2.7,7-10.2,7c-5.8,0-8.4-1.6-8.4-4.1c0-1.9,1.5-2.6,2.8-3l1.6,0.9c-0.3,0.7-0.4,1.4-0.4,2c0,1.7,1.1,3.3,5.1,3.3
				c4.3,0,6.5-1.7,6.5-4.2c0-2.1-1.2-2.8-5-2.8h-4.2c-3.5,0-4.7-1.4-4.7-3c0-1.7,1.2-2.8,3.6-4.5c-2.6-0.9-3.7-2.7-3.7-5.5
				c0-3.4,2.3-6.3,7.5-6.3c1.3,0,2.6,0.3,3.7,0.9c-0.2-2.8,1.1-5.5,4-5.5c1.6,0,2.8,1,2.8,2.6c0,1.1-0.8,2.1-2,2.1
				c-1,0-1.7-0.6-1.9-1.1l0.9-1c-0.1-0.6-0.4-0.9-1-0.9c-0.9,0-1.7,1-1.7,3.5c0,0.3,0,0.6,0,1c1.4,1,2.3,2.5,2.3,4.6
				C1541.9,3863.5,1539.2,3865.9,1534.9,3865.9z M1534.8,3864.9c1.5,0,2.4-0.9,2.4-5.1c0-4.3-0.8-5.3-2.3-5.3
				c-1.6,0-2.5,0.9-2.5,5.4C1532.3,3863.9,1533.1,3864.9,1534.8,3864.9z"/>
			<path class="st2" d="M1553.7,3853.5c5.1,0,7.5,2.9,7.3,8.4h-11v1c0,4.8,1,7.6,4.8,7.6c2.8,0,4.5-1.7,5.2-4.4l1,0.1
				c-0.7,3.1-2.6,5.6-7.6,5.6c-6.1,0-8.9-3.7-8.9-9.1C1544.6,3856.4,1548.6,3853.5,1553.7,3853.5z M1556,3861
				c0.1-4.7-0.4-6.5-2.6-6.5c-2.1,0-3.1,1.7-3.2,6.5H1556z"/>
		</g>
		<g class="st1">
			<path class="st2" d="M1425,3935.2c0.9-1.2,1.3-2.5,1.3-3.6c0-1.2-0.4-2.1-1.1-2.9c-0.8-0.8-1.8-1.2-3-1.2c-2.2,0-4.3,1.6-6.2,4.7
				l-6.2-3.7c1.6-2.5,3.4-4.5,5.4-5.8c2-1.3,4.4-2,7.5-2c3,0,5.7,1,8,2.9c2.3,1.9,3.4,4.5,3.4,7.8c0,1.8-0.5,3.5-1.4,5.2
				c-0.9,1.7-2.6,3.8-5.1,6.3l-6.3,6.5h13.8v7h-24.6v-5.8l10.2-10.5C1422.6,3938.1,1424.1,3936.4,1425,3935.2z"/>
			<path class="st2" d="M1454.9,3956.9c-4.8,0-8.5-1.6-10.9-4.9c-2.4-3.3-3.6-7.7-3.6-13.1s1.2-9.9,3.6-13.2c2.4-3.3,6-4.9,10.9-4.9
				c4.8,0,8.5,1.6,10.9,4.9c2.4,3.3,3.6,7.7,3.6,13.2s-1.2,9.9-3.6,13.1C1463.4,3955.3,1459.7,3956.9,1454.9,3956.9z M1449.8,3930.4
				c-1.1,2.1-1.6,4.9-1.6,8.4s0.5,6.3,1.6,8.5c1.1,2.1,2.8,3.2,5.1,3.2c2.3,0,4-1.1,5.2-3.2c1.1-2.1,1.6-5,1.6-8.5s-0.5-6.3-1.6-8.4
				c-1.1-2.1-2.8-3.2-5.2-3.2C1452.6,3927.2,1450.9,3928.3,1449.8,3930.4z"/>
			<path class="st2" d="M1483.3,3951.1v-9h-8.8v-6.1h8.8v-9h6.9v9h8.8v6.1h-8.8v9H1483.3z"/>
		</g>
		<g class="st1">
			<path class="st2" d="M1349,3987.8v8.7h-4.5v-22.3h4.5v7.9c1.4-1.4,2.9-2.1,4.6-2.1c1.7,0,3.1,0.6,4.3,1.8
				c1.2,1.2,1.7,2.8,1.7,4.8v9.8h-4.5v-8.8c0-2.5-0.9-3.7-2.7-3.7c-0.9,0-1.7,0.3-2.4,1C1349.3,3985.6,1349,3986.5,1349,3987.8z"/>
			<path class="st2" d="M1379.8,3988.4c0,2.3-0.8,4.3-2.4,5.9c-1.6,1.6-3.7,2.4-6.1,2.4c-2.5,0-4.5-0.8-6.1-2.4
				c-1.6-1.6-2.4-3.6-2.4-5.9s0.8-4.3,2.4-5.9c1.6-1.6,3.7-2.4,6.1-2.4c2.4,0,4.5,0.8,6.1,2.4
				C1379,3984.1,1379.8,3986.1,1379.8,3988.4z M1367.2,3988.4c0,1.3,0.4,2.4,1.1,3.2s1.7,1.2,2.9,1.2s2.1-0.4,2.9-1.2
				s1.1-1.9,1.1-3.2c0-1.3-0.4-2.4-1.1-3.2c-0.8-0.8-1.7-1.3-2.9-1.3s-2.1,0.4-2.9,1.3C1367.6,3986,1367.2,3987.1,1367.2,3988.4z"/>
			<path class="st2" d="M1393.5,3989.1v-8.7h4.5v16.1h-4.5v-2.1c-1.1,1.6-2.6,2.4-4.3,2.4s-3.3-0.6-4.5-1.7
				c-1.2-1.1-1.8-2.8-1.8-4.9v-9.8h4.5v8.8c0,2.5,0.9,3.7,2.7,3.7c0.9,0,1.7-0.3,2.3-1C1393.2,3991.2,1393.5,3990.3,1393.5,3989.1z"
				/>
			<path class="st2" d="M1410.8,3984.3c-1.3,0-2.3,0.5-3,1.4c-0.7,1-1,2.2-1,3.8v7h-4.5v-16.1h4.5v2.1c0.6-0.7,1.3-1.2,2.2-1.7
				c0.9-0.5,1.8-0.7,2.7-0.7l0,4.2H1410.8z"/>
			<path class="st2" d="M1426.7,3991.5c0,1.6-0.6,2.9-1.8,3.8s-2.7,1.4-4.5,1.4c-1.2,0-2.5-0.2-3.8-0.6c-1.3-0.4-2.5-1.1-3.5-1.9
				l2-2.8c1.7,1.3,3.5,2,5.4,2c0.6,0,1-0.1,1.4-0.3c0.3-0.2,0.5-0.5,0.5-0.9c0-0.4-0.2-0.7-0.7-1c-0.5-0.3-1.2-0.6-2-0.9
				c-0.9-0.3-1.6-0.5-2-0.7c-0.5-0.2-1-0.5-1.6-0.9c-1.2-0.8-1.8-1.9-1.8-3.4c0-1.5,0.6-2.7,1.8-3.6c1.2-0.9,2.8-1.4,4.6-1.4
				s3.8,0.6,5.7,1.9l-1.7,3c-1.4-1-2.8-1.4-4.2-1.4c-1.4,0-2.1,0.4-2.1,1.1c0,0.4,0.2,0.8,0.7,1s1.2,0.5,2.2,0.8
				c1,0.3,1.7,0.6,2.2,0.7c0.4,0.2,0.9,0.4,1.5,0.8C1426.1,3988.8,1426.7,3989.9,1426.7,3991.5z"/>
			<path class="st2" d="M1451.8,3996.5h-4.2v-2c-1.2,1.5-2.6,2.2-4.3,2.2s-3.1-0.5-4.3-1.5c-1.2-1-1.7-2.3-1.7-4s0.6-2.9,1.8-3.7
				c1.2-0.8,2.8-1.2,4.9-1.2h3.4v-0.1c0-1.7-0.9-2.6-2.7-2.6c-0.8,0-1.6,0.2-2.5,0.5c-0.9,0.3-1.6,0.7-2.2,1.2l-2-2.9
				c2.1-1.5,4.5-2.3,7.3-2.3c2,0,3.6,0.5,4.8,1.5c1.2,1,1.9,2.5,1.9,4.7V3996.5z M1447.2,3990.4v-0.8h-2.8c-1.8,0-2.7,0.6-2.7,1.7
				c0,0.6,0.2,1,0.6,1.3c0.4,0.3,1,0.5,1.8,0.5s1.5-0.2,2.1-0.7C1446.9,3991.8,1447.2,3991.2,1447.2,3990.4z"/>
			<path class="st2" d="M1478.6,3987.8v8.7h-4.5v-8.8c0-1.3-0.2-2.2-0.6-2.8c-0.4-0.6-1-0.9-1.9-0.9c-0.9,0-1.6,0.3-2.3,1
				c-0.7,0.7-1,1.6-1,2.9v8.7h-4.5v-16.1h4.5v1.8c1.2-1.4,2.7-2.1,4.3-2.1c1,0,1.9,0.3,2.8,0.9c0.8,0.6,1.5,1.3,1.9,2.2
				c0.6-1,1.5-1.7,2.5-2.3s2.1-0.8,3.2-0.8c1.9,0,3.4,0.6,4.6,1.7s1.7,2.8,1.7,4.9v9.8h-4.5v-8.8c0-2.5-0.9-3.7-2.7-3.7
				c-0.9,0-1.7,0.3-2.3,1C1478.9,3985.6,1478.6,3986.5,1478.6,3987.8z"/>
			<path class="st2" d="M1509.4,3988.4c0,2.3-0.8,4.3-2.4,5.9c-1.6,1.6-3.7,2.4-6.1,2.4s-4.5-0.8-6.1-2.4c-1.6-1.6-2.4-3.6-2.4-5.9
				s0.8-4.3,2.4-5.9c1.6-1.6,3.7-2.4,6.1-2.4s4.5,0.8,6.1,2.4C1508.6,3984.1,1509.4,3986.1,1509.4,3988.4z M1496.9,3988.4
				c0,1.3,0.4,2.4,1.1,3.2s1.7,1.2,2.9,1.2s2.1-0.4,2.9-1.2s1.1-1.9,1.1-3.2c0-1.3-0.4-2.4-1.1-3.2c-0.8-0.8-1.7-1.3-2.9-1.3
				s-2.1,0.4-2.9,1.3C1497.3,3986,1496.9,3987.1,1496.9,3988.4z"/>
			<path class="st2" d="M1517.2,3987.5v9h-4.5v-16.1h4.5v1.8c1.4-1.4,2.9-2.1,4.6-2.1s3.1,0.6,4.3,1.8c1.2,1.2,1.7,2.8,1.7,4.8v9.8
				h-4.5v-9.1c0-2.5-0.9-3.7-2.7-3.7c-0.9,0-1.7,0.3-2.4,1C1517.6,3985.3,1517.2,3986.2,1517.2,3987.5z"/>
			<path class="st2" d="M1537,3983.6v7.2c0,0.6,0.2,1.1,0.5,1.5c0.3,0.3,0.7,0.5,1.1,0.5c0.8,0,1.6-0.4,2.1-1.1l1.7,3.2
				c-1.4,1.3-2.9,1.9-4.4,1.9c-1.5,0-2.9-0.5-3.9-1.5c-1.1-1-1.6-2.4-1.6-4.2v-7.4h-1.9v-3.2h1.9v-4.8h4.5v4.8h3.9v3.2H1537z"/>
			<path class="st2" d="M1549.4,3987.8v8.7h-4.5v-22.3h4.5v7.9c1.4-1.4,2.9-2.1,4.6-2.1c1.7,0,3.1,0.6,4.3,1.8
				c1.2,1.2,1.7,2.8,1.7,4.8v9.8h-4.5v-8.8c0-2.5-0.9-3.7-2.7-3.7c-0.9,0-1.7,0.3-2.4,1C1549.7,3985.6,1549.4,3986.5,1549.4,3987.8z
				"/>
		</g>
	</g>
</g>
</svg>
