<svg id="Phone" xmlns="http://www.w3.org/2000/svg" width="23" height="23" viewBox="0 0 23 23">
  <rect id="Rectangle_320" data-name="Rectangle 320" width="23" height="23" fill="none"/>
  <path id="Path_110" data-name="Path 110" d="M13.291,16.359l2.454-2.249a.751.751,0,0,1,.613-.2l.409.2,5.725,2.658c.409.2.409.409.409.818a5.184,5.184,0,0,1-1.636,3.681A5.858,5.858,0,0,1,16.972,22.9a12.459,12.459,0,0,1-5.725-1.431,26.806,26.806,0,0,1-5.725-4.09,34.829,34.829,0,0,1-3.067-4.5,28.265,28.265,0,0,1-2.045-4.5A12.583,12.583,0,0,1,0,4.5,5.373,5.373,0,0,1,1.431,1.431,6.218,6.218,0,0,1,5.317,0a1.062,1.062,0,0,1,.818.409L9.2,6.134a.714.714,0,0,0,.2.409.751.751,0,0,1-.2.613L6.543,9.611a.913.913,0,0,0,0,1.022A19.527,19.527,0,0,0,9,13.9a20.646,20.646,0,0,0,3.272,2.658C12.678,16.768,13.087,16.768,13.291,16.359Z" transform="translate(0 0)" fill="#9a7748"/>
</svg>
