<?xml version="1.0" encoding="UTF-8"?><svg id="Layer_1" xmlns="http://www.w3.org/2000/svg" viewBox="0 0 584 305"><defs><style>.cls-1{fill:#f9f7f4;}</style></defs><g><path class="cls-1" d="M78.78,139.86v-7.41c0-11.07-1.73-15.23-7.92-15.23-3.55,0-6.4,1.22-6.4,3.96,0,.61,.1,1.32,.3,2.03h2.74c.51,1.32,.81,2.64,.81,4.27,0,4.27-3.15,6.8-7.31,6.8-4.88,0-7.11-2.95-7.11-7.41,0-7.92,7.82-12.09,19.4-12.09,14.12,0,19.7,4.47,19.7,19.2v20.01c0,4.27,1.22,5.69,3.15,5.69,2.03,0,3.35-1.62,4.06-9.75l2.34,.2c-.51,11.17-3.86,15.03-11.78,15.03-6.8,0-10.56-2.44-11.58-7.21-2.23,4.77-6.5,7.21-13,7.21-7.41,0-14.52-2.54-14.52-12.09,0-10.46,8.84-13.2,22.55-13.2h4.57Zm0,10.97v-8.43h-2.34c-7.31,0-9.95,3.55-9.95,10.36,0,5.99,1.52,8.02,4.88,8.02,3.66,0,7.41-3.66,7.41-9.95Z"/><path class="cls-1" d="M142.56,156.82c-2.74,5.18-7.11,8.33-15.03,8.33-11.68,0-18.99-8.12-18.99-24.88s7.72-25.49,20.72-25.49c6.7,0,10.77,2.34,13,5.99v-30.16h-7.82v-2.64h22.34v73.53h6.6v2.64h-19.91l-.91-7.31Zm0-8.53v-18.38c0-5.48-3.66-11.68-9.65-11.68-6.91,0-9.24,6.5-9.24,21.94s1.73,20.52,8.43,20.52c4.98,0,10.46-4.37,10.46-12.39Z"/><path class="cls-1" d="M189.88,115.79v9.14c2.03-4.88,5.79-10.16,15.34-10.16,7.41,0,12.49,3.15,14.22,10.97,2.13-5.18,6.6-10.97,16.05-10.97,8.63,0,14.73,4.47,14.73,16.96v29.76h6.7v2.64h-26.61v-2.64h5.59v-31.89c0-8.12-1.42-10.26-5.28-10.26-5.69,0-10.56,6.2-10.56,15.13v27.02h5.69v2.64h-25.59v-2.64h5.59v-31.69c0-8.33-1.42-10.46-5.18-10.46-5.79,0-10.66,6.7-10.66,15.54v26.61h5.69v2.64h-26.61v-2.64h6.6v-43.06h-6.6v-2.64h20.92Z"/><path class="cls-1" d="M283.41,115.79v45.7h6.7v2.64h-27.62v-2.64h6.6v-43.06h-6.8v-2.64h21.12Zm-7.82-24.27c4.88,0,8.02,2.44,8.02,7.72,0,4.47-2.54,7.82-8.12,7.82-6.5,0-8.23-4.16-8.23-7.82,0-4.06,2.54-7.72,8.33-7.72Z"/><path class="cls-1" d="M316.83,115.79v9.14c2.23-5.08,6.5-10.16,16.55-10.16,9.34,0,15.34,4.67,15.34,16.96v29.76h6.7v2.64h-26.91v-2.64h5.89v-31.28c0-8.02-1.52-10.66-5.89-10.66-6.09,0-11.68,6.7-11.68,15.54v26.41h5.99v2.64h-26.91v-2.64h6.6v-43.06h-6.6v-2.64h20.92Z"/></g><g><path class="cls-1" d="M67.15,66.47l-2.12,10.98c-.25,1.21-1.06,5.79-1.06,7.35,0,1.31,.45,2.37,2.06,2.37,1.71,0,2.97-1.21,4.58-3.52l1.21,.86c-1.81,2.87-4.38,5.39-8.31,5.39-4.94,0-6.6-2.77-6.6-5.74,0-1.81,.4-3.93,.96-6.8l2.11-10.88h-3.63l.2-1.31h3.63l.91-5.44,5.84-1.61h1.56l-1.16,7.05h5.29l-.2,1.31h-5.29Z"/><path class="cls-1" d="M89.96,84.75c0-3.42,2.22-9.92,2.92-12.74,.76-2.82,.71-4.53-1.11-4.53-2.47,0-5.09,3.42-6.7,7.75-1.31,3.58-2.27,8.21-2.87,13.95-1.56-.05-6.24,.2-7.65,.5l2.11-9.37,4.23-27.44h-3.78l.15-1.31h10.98l-4.63,22.11,.3,.15c1.81-3.93,5.04-9.16,10.73-9.16,3.58,0,5.34,2.01,5.34,5.34,0,1.11-.2,2.27-.5,3.47-.35,1.26-2.27,9.32-2.47,10.27-.2,1.01-.4,2.01-.4,2.52,0,1.11,.5,1.46,1.36,1.46,.96,0,2.06-.81,3.22-2.37l1.11,.86c-1.56,2.32-3.58,3.68-6.7,3.68-3.42,0-5.64-1.61-5.64-5.14Z"/><path class="cls-1" d="M126.46,70.55c0,5.09-5.24,6.8-9.67,7.55-1.66,.25-3.58,.4-4.83,.45-.05,1.11-.05,1.66-.05,2.17,0,5.14,1.56,6.9,4.68,6.9,2.82,0,5.74-1.76,7.45-6.75l1.36,.45c-1.91,5.84-5.64,8.56-11.43,8.56s-9.42-3.47-9.42-9.42c0-9.27,5.74-15.81,14.35-15.81,4.88,0,7.55,2.17,7.55,5.89Zm-8.31-4.43c-2.87,0-5.39,4.53-6.09,11.03,4.13-.45,8.36-1.46,8.36-7.55,0-2.27-.71-3.47-2.27-3.47Z"/></g><g><path class="cls-1" d="M163.18,188.56c2.84-5.08,7.31-8.73,15.23-8.73,11.68,0,18.79,8.12,18.79,24.98s-7.41,25.39-20.82,25.39c-7.01,0-10.77-2.23-13.1-5.79v26.3h13.1v2.64h-34.53v-2.64h7.21v-67.23h-6.8v-2.64h20.92v7.72Zm0,9.95v16.25c0,5.89,3.55,12.09,10.16,12.09s8.84-5.89,8.84-21.84-1.62-20.82-8.23-20.82c-5.28,0-10.77,5.59-10.77,14.32Z"/><path class="cls-1" d="M225.43,201.46v25.09h9.04v2.64h-29.96v-2.64h6.6v-43.06h-6.6v-2.64h20.92v9.45c2.13-7.21,7.11-10.46,13-10.46,6.2,0,10.46,3.96,10.46,10.56,0,5.79-2.95,8.63-7.31,8.63-4.06,0-7.11-2.23-7.11-7.52,0-.91,.1-1.93,.3-2.95h3.15c.41-.91,.51-1.62,.51-2.23,0-1.93-1.42-2.34-2.74-2.34-5.48,0-10.26,8.33-10.26,17.47Z"/><path class="cls-1" d="M281.49,204.91v-7.41c0-11.07-1.73-15.23-7.92-15.23-3.55,0-6.4,1.22-6.4,3.96,0,.61,.1,1.32,.3,2.03h2.74c.51,1.32,.81,2.64,.81,4.27,0,4.27-3.15,6.8-7.31,6.8-4.88,0-7.11-2.95-7.11-7.41,0-7.92,7.82-12.09,19.4-12.09,14.12,0,19.7,4.47,19.7,19.2v20.01c0,4.27,1.22,5.69,3.15,5.69,2.03,0,3.35-1.62,4.06-9.75l2.34,.2c-.51,11.17-3.86,15.03-11.78,15.03-6.8,0-10.56-2.44-11.58-7.21-2.23,4.77-6.5,7.21-13,7.21-7.41,0-14.52-2.54-14.52-12.09,0-10.46,8.84-13.2,22.55-13.2h4.57Zm0,10.97v-8.43h-2.34c-7.31,0-9.95,3.55-9.95,10.36,0,5.99,1.52,8.02,4.88,8.02,3.66,0,7.41-3.66,7.41-9.95Z"/><path class="cls-1" d="M325.87,205.01c0,15.23,3.35,21.33,12.09,21.33,9.34,0,12.59-7.31,13.71-13.1l2.84,.41c-1.22,6.3-4.47,16.55-20.52,16.55-14.93,0-23.26-8.73-23.26-24.38,0-17.27,10.16-26,25.7-26,11.58,0,17.77,5.08,17.77,12.9,0,5.69-2.95,8.53-7.31,8.53s-7.52-2.54-7.52-7.41c0-.91,.1-2.23,.51-3.66h3.15c.3-1.02,.51-2.03,.51-2.95,0-2.84-2.03-4.98-6.4-4.98-7.82,0-11.27,5.89-11.27,22.75Z"/><path class="cls-1" d="M366.39,183.48h-6.6v-2.64h6.6v-13.1l14.42-3.66v16.76h13.61v2.64h-13.61v33.31c0,5.79,1.12,8.73,5.59,8.73,4.88,0,7.62-3.96,8.53-10.87l2.34,.3c-.91,7.92-4.06,15.23-15.64,15.23-8.84,0-15.23-2.95-15.23-13.81v-32.91Z"/><path class="cls-1" d="M422.96,180.84v45.7h6.7v2.64h-27.62v-2.64h6.6v-43.06h-6.8v-2.64h21.12Zm-7.82-24.27c4.88,0,8.02,2.44,8.02,7.72,0,4.47-2.54,7.82-8.12,7.82-6.5,0-8.23-4.16-8.23-7.82,0-4.06,2.54-7.72,8.33-7.72Z"/><path class="cls-1" d="M451.39,205.01c0,15.23,3.35,21.33,12.09,21.33,9.34,0,12.59-7.31,13.71-13.1l2.84,.41c-1.22,6.3-4.47,16.55-20.52,16.55-14.93,0-23.26-8.73-23.26-24.38,0-17.27,10.16-26,25.7-26,11.58,0,17.77,5.08,17.77,12.9,0,5.69-2.95,8.53-7.31,8.53s-7.52-2.54-7.52-7.41c0-.91,.1-2.23,.51-3.66h3.15c.3-1.02,.51-2.03,.51-2.95,0-2.84-2.03-4.98-6.4-4.98-7.82,0-11.27,5.89-11.27,22.75Z"/><path class="cls-1" d="M512.53,179.82c14.02,0,20.72,7.92,20.11,23.16h-30.06v2.74c0,13.2,2.74,20.82,13.1,20.82,7.72,0,12.29-4.57,14.32-12.19l2.74,.41c-2.03,8.53-7.21,15.44-20.92,15.44-16.76,0-24.38-10.16-24.38-24.88,0-17.67,10.97-25.49,25.09-25.49Zm6.09,20.41c.2-12.9-1.12-17.98-7.21-17.98-5.69,0-8.53,4.67-8.84,17.98h16.05Z"/></g></svg>