<?xml version="1.0" encoding="UTF-8"?><svg id="Layer_1" xmlns="http://www.w3.org/2000/svg" viewBox="0 0 238.14 240.14"><defs><style>.cls-1{fill:#997748;}</style></defs><g><path class="cls-1" d="M89.59,85.54v-10.64c0-15.89-2.48-21.86-11.37-21.86-5.1,0-9.18,1.75-9.18,5.68,0,.88,.15,1.89,.44,2.92h3.94c.73,1.89,1.17,3.79,1.17,6.12,0,6.12-4.52,9.76-10.49,9.76-7,0-10.2-4.23-10.2-10.64,0-11.37,11.22-17.34,27.84-17.34,20.26,0,28.28,6.41,28.28,27.55v28.71c0,6.12,1.75,8.16,4.52,8.16,2.92,0,4.81-2.33,5.83-13.99l3.35,.29c-.73,16.03-5.54,21.57-16.91,21.57-9.76,0-15.16-3.5-16.62-10.35-3.21,6.85-9.33,10.35-18.66,10.35-10.64,0-20.84-3.64-20.84-17.34,0-15.01,12.68-18.95,32.36-18.95h6.56Zm0,15.74v-12.1h-3.35c-10.49,0-14.28,5.1-14.28,14.87,0,8.6,2.19,11.51,7,11.51,5.25,0,10.64-5.25,10.64-14.28Z"/><path class="cls-1" d="M139.64,96.99c4.08-7.29,10.49-12.53,21.86-12.53,16.76,0,26.96,11.66,26.96,35.85s-10.64,36.44-29.88,36.44c-10.06,0-15.45-3.21-18.8-8.31v37.75h18.8v3.79h-49.56v-3.79h10.35V89.71h-9.76v-3.79h30.02v11.08Zm0,14.28v23.32c0,8.45,5.1,17.34,14.58,17.34s12.68-8.45,12.68-31.34-2.33-29.88-11.81-29.88c-7.58,0-15.45,8.02-15.45,20.55Z"/></g><g><path class="cls-1" d="M126.92,61.23l-2.04,10.96c-.35,1.84-.51,2.94-.51,3.56,0,1.17,.55,1.8,1.68,1.8,1.41,0,2.35-.9,3.56-2.58l.9,.67c-1.29,2.04-3.21,3.72-5.83,3.72-3.37,0-4.74-1.88-4.74-4.23,0-1.37,.27-2.86,.74-5.17l1.68-8.73h-2.82l.16-1.02h2.82l.74-4.54,4.74-1.21-.94,5.76h4.11l-.16,1.02h-4.11Z"/><path class="cls-1" d="M144.97,75.75c0-2.62,1.76-7.67,2.43-10.73,.2-.78,.27-1.41,.27-1.92,0-1.02-.39-1.49-1.33-1.49-2.54,0-5.17,3.68-6.46,7.48-.9,2.66-1.45,5.99-1.84,9.71-1.21-.04-3.8,.16-4.89,.39l1.53-7.09,3.37-21.54h-2.94l.12-1.02h7.4l-3.56,17.42,.23,.12c1.64-3.37,4.23-7.28,8.42-7.28,2.74,0,4.15,1.45,4.15,4.07,0,.74-.12,1.68-.31,2.54-.47,1.88-1.61,6.15-2.04,8.07-.16,.63-.35,1.49-.35,2.11,0,.9,.43,1.21,1.1,1.21,.94,0,1.8-.74,2.58-1.8l.82,.67c-1.06,1.53-2.51,2.66-4.7,2.66-2.51,0-3.99-1.21-3.99-3.6Z"/><path class="cls-1" d="M172.42,64.32c0,4.03-4.03,5.29-7.36,5.91-1.33,.24-2.74,.39-4.15,.47v.55c0,4.78,1.1,6.5,3.88,6.5,2.23,0,4.66-1.21,6.07-5.33l1.06,.31c-1.29,4.39-4.35,6.62-8.69,6.62-4.58,0-7.05-2.74-7.05-7.36,0-6.66,4.35-12.18,10.73-12.18,3.48,0,5.52,1.57,5.52,4.5Zm-6.15-3.45c-2.31,0-4.66,3.21-5.29,8.69,4.27-.27,7.36-1.64,7.36-5.79,0-1.96-.74-2.9-2.08-2.9Z"/></g></svg>