<?xml version="1.0" encoding="UTF-8"?><svg id="Layer_1" xmlns="http://www.w3.org/2000/svg" viewBox="0 0 290.23 232.23"><defs><style>.cls-1{fill:#997748;}</style></defs><path class="cls-1" d="M140.06,109.93v-10.64c0-15.89-2.48-21.86-11.37-21.86-5.1,0-9.18,1.75-9.18,5.68,0,.88,.15,1.9,.44,2.92h3.94c.73,1.9,1.17,3.79,1.17,6.12,0,6.12-4.52,9.77-10.49,9.77-7,0-10.2-4.23-10.2-10.64,0-11.37,11.22-17.34,27.84-17.34,20.26,0,28.28,6.41,28.28,27.55v28.71c0,6.12,1.75,8.16,4.52,8.16,2.92,0,4.81-2.33,5.83-13.99l3.35,.29c-.73,16.03-5.54,21.57-16.91,21.57-9.77,0-15.16-3.5-16.62-10.35-3.21,6.85-9.33,10.35-18.66,10.35-10.64,0-20.84-3.64-20.84-17.34,0-15.01,12.68-18.95,32.36-18.95h6.56Zm0,15.74v-12.1h-3.35c-10.49,0-14.28,5.1-14.28,14.87,0,8.6,2.19,11.51,7,11.51,5.25,0,10.64-5.25,10.64-14.28Z"/><path class="cls-1" d="M60.82,79.18h-9.47v-3.79h9.47v-18.8l20.7-5.25v24.05h19.53v3.79h-19.53v47.81c0,8.31,1.6,12.53,8.02,12.53,7,0,10.93-5.68,12.24-15.6l3.35,.44c-1.31,11.37-5.83,21.86-22.45,21.86-12.68,0-21.86-4.23-21.86-19.82v-47.22Z"/><path class="cls-1" d="M190.96,86.46c4.08-7.29,10.49-12.53,21.86-12.53,16.76,0,26.96,11.66,26.96,35.85s-10.64,36.44-29.88,36.44c-10.06,0-15.45-3.21-18.8-8.31v37.75h18.8v3.79h-49.56v-3.79h10.35V79.17h-9.77v-3.79h30.02v11.08Zm0,14.28v23.32c0,8.45,5.1,17.34,14.58,17.34s12.68-8.45,12.68-31.34-2.33-29.88-11.81-29.88c-7.58,0-15.45,8.02-15.45,20.55Z"/></svg>